<?xml version="1.0" encoding="UTF-8" standalone="no"?>
<!-- Created with Inkscape (http://www.inkscape.org/) -->

<svg
   xmlns:dc="http://purl.org/dc/elements/1.1/"
   xmlns:cc="http://creativecommons.org/ns#"
   xmlns:rdf="http://www.w3.org/1999/02/22-rdf-syntax-ns#"
   xmlns:svg="http://www.w3.org/2000/svg"
   xmlns="http://www.w3.org/2000/svg"
   xmlns:sodipodi="http://sodipodi.sourceforge.net/DTD/sodipodi-0.dtd"
   xmlns:inkscape="http://www.inkscape.org/namespaces/inkscape"
   width="499.87268"
   height="156.67667"
   id="svg2"
   version="1.1"
   inkscape:version="0.48.4 r9939"
   sodipodi:docname="New document 1">
  <defs
     id="defs4" />
  <sodipodi:namedview
     id="base"
     pagecolor="#ffffff"
     bordercolor="#666666"
     borderopacity="1.0"
     inkscape:pageopacity="0.0"
     inkscape:pageshadow="2"
     inkscape:zoom="0.49497475"
     inkscape:cx="263.60395"
     inkscape:cy="-192.6898"
     inkscape:document-units="px"
     inkscape:current-layer="layer1"
     showgrid="false"
     fit-margin-top="0"
     fit-margin-left="0"
     fit-margin-right="0"
     fit-margin-bottom="0"
     inkscape:window-width="828"
     inkscape:window-height="755"
     inkscape:window-x="1619"
     inkscape:window-y="134"
     inkscape:window-maximized="0" />
  <metadata
     id="metadata7">
    <rdf:RDF>
      <cc:Work
         rdf:about="">
        <dc:format>image/svg+xml</dc:format>
        <dc:type
           rdf:resource="http://purl.org/dc/dcmitype/StillImage" />
        <dc:title></dc:title>
      </cc:Work>
    </rdf:RDF>
  </metadata>
  <g
     inkscape:label="Layer 1"
     inkscape:groupmode="layer"
     id="layer1"
     transform="translate(-99.471109,-126.92759)">
    <g
       style="font-size:163.03527832px;font-style:normal;font-variant:normal;font-weight:normal;font-stretch:normal;line-height:125%;letter-spacing:0px;word-spacing:0px;fill:#000000;fill-opacity:1;stroke:none;font-family:Faktos;-inkscape-font-specification:Faktos"
       id="text2985">
      <path
         d="m 99.471109,189.04101 c -2e-6,-8.04356 2.554051,-14.72723 7.662181,-20.05103 5.21756,-5.2175 12.01069,-7.82628 20.37941,-7.82637 l 38.47509,0 0,22.98654 -34.56439,0 c -2.71663,6e-5 -4.07492,1.41309 -4.07489,4.23907 -3e-5,1.95707 1.08793,3.20756 3.26389,3.75149 l 14.50839,0 c 7.49959,6e-5 13.80347,2.60884 18.91165,7.82637 5.10805,5.32377 7.66211,11.68072 7.66218,19.07087 l 0,6.1994 c -7e-5,6.84622 -3.20591,13.1501 -9.61753,18.91165 -5.10818,4.56414 -11.84658,6.84621 -20.21522,6.84621 l -40.27122,0 0,-25.27027 35.70377,0 c 4.12957,2e-5 6.19438,-1.30354 6.19442,-3.9107 l 0,-0.81597 c -4e-5,-2.50096 -1.68506,-3.75145 -5.05505,-3.75148 l -12.06047,0 c -4.13296,3e-5 -7.82971,-0.70648 -11.09026,-2.11954 -3.26058,-1.41299 -6.08663,-3.36917 -8.47815,-5.86854 -2.39154,-2.49928 -4.21172,-5.46132 -5.46055,-8.88613 -1.24884,-3.42471 -1.873253,-7.2019 -1.873251,-11.33157 z"
         id="path2990"
         inkscape:connector-curvature="0" />
      <path
         d="m 254.10287,250.99521 -28.365,0 0,-56.24737 c -5e-5,-7.17453 -2.82609,-10.76181 -8.47815,-10.76188 l -8.15475,0 0,67.00925 -28.36499,0 0,-89.8316 43.20176,0 c 5.65205,9e-5 11.19634,1.41311 16.6329,4.23907 5.86764,3.26066 9.56273,7.445 11.08529,12.55304 1.62855,5.76163 2.44286,12.88148 2.44294,21.35957 z"
         id="path2992"
         inkscape:connector-curvature="0" />
      <path
         d="m 269.68097,183.98596 0,-22.82235 43.68936,0 c 7.60905,9e-5 13.69567,1.7929 18.25987,5.37845 5.0019,4.02355 7.50289,9.73038 7.50297,17.12049 l 0,67.33266 -45.16209,0 c -9.56614,0 -17.12051,-2.11954 -22.66314,-6.35862 -6.08663,-4.78304 -9.12993,-11.79343 -9.12993,-21.03119 0,-12.60773 6.08661,-21.2484 18.25987,-25.92205 1.08794,-0.43447 4.83776,-1.41297 11.24947,-2.93551 6.30551,-1.62857 9.94753,-2.44288 10.92607,-2.44294 3.15107,-0.54393 5.05335,-0.92538 5.70684,-1.14435 2.17255,-0.86899 3.25886,-2.22728 3.25891,-4.07489 -5e-5,-2.0664 -1.25054,-3.09963 -3.75148,-3.0997 z m 40.91804,29.02175 -16.29955,5.37845 c -3.045,0.97854 -4.56748,2.1743 -4.56745,3.5873 -3e-5,2.50101 1.25046,3.7515 3.75148,3.75148 l 17.11552,0 z"
         id="path2994"
         inkscape:connector-curvature="0" />
      <path
         d="m 410.76957,247.08451 c -4.23914,2.60713 -8.85966,3.9107 -13.86158,3.9107 l -17.4439,0 0,32.60904 -28.365,0 0,-122.44064 44.18193,0 c 10.86962,9e-5 18.96631,4.61895 24.29011,13.8566 4.45791,7.60918 6.68691,17.12056 6.68699,28.53416 l 0,3.58232 c -8e-5,3.58899 -0.10871,6.85039 -0.32589,9.78421 -0.21734,2.93388 -0.54324,5.59657 -0.97768,7.98807 -1.74148,10.00065 -6.4698,17.39249 -14.18498,22.17554 z m -22.49895,-62.93436 -8.80653,0 0,41.57479 9.29412,0 c 2.28203,2e-5 4.40156,-0.97848 6.35862,-2.93551 l 0.65178,-0.65178 c 0.86899,-0.86902 1.4677,-3.69507 1.79614,-8.47816 0.10609,-0.75954 0.15916,-1.24879 0.15921,-1.46775 -5e-5,-0.32503 -5e-5,-0.43283 0,-0.32341 l 0,-14.83676 c -5e-5,-1.52243 -0.16258,-3.36998 -0.48759,-5.54265 -0.97856,-4.89245 -3.96714,-7.33871 -8.96575,-7.33877 z"
         id="path2996"
         inkscape:connector-curvature="0" />
      <path
         d="m 435.16416,250.99521 0,-27.06143 31.7881,0 0,27.06143 z"
         id="path2998"
         inkscape:connector-curvature="0" />
      <path
         d="m 489.87909,248.38808 0,-87.22447 28.20578,0 0,88.19965 c -5e-5,22.60839 -9.78175,33.96731 -29.34516,34.07681 l -14.34917,0.16418 0,-24.45927 7.0104,0 c 5.65208,-10e-6 8.47813,-3.58564 8.47815,-10.7569 z m 0,-121.46049 28.20578,0 0,25.92205 -28.20578,0 z"
         id="path3000"
         inkscape:connector-curvature="0" />
      <path
         d="m 527.12028,189.04101 c 0,-8.04356 2.55405,-14.72723 7.66218,-20.05103 5.21756,-5.2175 12.01069,-7.82628 20.37941,-7.82637 l 38.47509,0 0,22.98654 -34.56439,0 c -2.71663,6e-5 -4.07492,1.41309 -4.07489,4.23907 -3e-5,1.95707 1.08793,3.20756 3.26389,3.75149 l 14.50839,0 c 7.49959,6e-5 13.80347,2.60884 18.91165,7.82637 5.10805,5.32377 7.66211,11.68072 7.66218,19.07087 l 0,6.1994 c -7e-5,6.84622 -3.20591,13.1501 -9.61753,18.91165 -5.10818,4.56414 -11.84658,6.84621 -20.21522,6.84621 l -40.27122,0 0,-25.27027 35.70377,0 c 4.12957,2e-5 6.19438,-1.30354 6.19442,-3.9107 l 0,-0.81597 c -4e-5,-2.50096 -1.68506,-3.75145 -5.05505,-3.75148 l -12.06047,0 c -4.13296,3e-5 -7.82971,-0.70648 -11.09026,-2.11954 -3.26058,-1.41299 -6.08663,-3.36917 -8.47815,-5.86854 -2.39154,-2.49928 -4.21172,-5.46132 -5.46055,-8.88613 -1.24884,-3.42471 -1.87325,-7.2019 -1.87325,-11.33157 z"
         id="path3002"
         inkscape:connector-curvature="0" />
    </g>
  </g>
</svg>
