<?xml version="1.0" encoding="UTF-8" standalone="no"?>
<!-- Created with Inkscape (http://www.inkscape.org/) -->

<svg
   xmlns:dc="http://purl.org/dc/elements/1.1/"
   xmlns:cc="http://creativecommons.org/ns#"
   xmlns:rdf="http://www.w3.org/1999/02/22-rdf-syntax-ns#"
   xmlns:svg="http://www.w3.org/2000/svg"
   xmlns="http://www.w3.org/2000/svg"
   xmlns:sodipodi="http://sodipodi.sourceforge.net/DTD/sodipodi-0.dtd"
   xmlns:inkscape="http://www.inkscape.org/namespaces/inkscape"
   width="629.28015"
   height="165.6902"
   id="svg2"
   version="1.1"
   inkscape:version="0.48.4 r9939"
   sodipodi:docname="New document 1">
  <defs
     id="defs4" />
  <sodipodi:namedview
     id="base"
     pagecolor="#ffffff"
     bordercolor="#666666"
     borderopacity="1.0"
     inkscape:pageopacity="0.0"
     inkscape:pageshadow="2"
     inkscape:zoom="0.7"
     inkscape:cx="266.47738"
     inkscape:cy="-88.358007"
     inkscape:document-units="px"
     inkscape:current-layer="layer1"
     showgrid="false"
     fit-margin-top="0"
     fit-margin-left="0"
     fit-margin-right="0"
     fit-margin-bottom="0"
     inkscape:window-width="937"
     inkscape:window-height="707"
     inkscape:window-x="1485"
     inkscape:window-y="120"
     inkscape:window-maximized="0" />
  <metadata
     id="metadata7">
    <rdf:RDF>
      <cc:Work
         rdf:about="">
        <dc:format>image/svg+xml</dc:format>
        <dc:type
           rdf:resource="http://purl.org/dc/dcmitype/StillImage" />
        <dc:title></dc:title>
      </cc:Work>
    </rdf:RDF>
  </metadata>
  <g
     inkscape:label="Layer 1"
     inkscape:groupmode="layer"
     id="layer1"
     transform="translate(-58.705353,-70.42577)"
     style="display:inline">
    <g
       style="font-size:159.46124268px;font-style:normal;font-variant:normal;font-weight:normal;font-stretch:normal;line-height:125%;letter-spacing:0px;word-spacing:0px;fill:#000000;fill-opacity:1;stroke:none;font-family:Faktos;-inkscape-font-specification:Faktos"
       id="text2985">
      <path
         d="m 97.247011,108.11095 c 8.824299,8e-5 16.532619,1.86876 23.124999,5.60606 6.3846,3.58172 10.56319,8.25343 12.53577,14.01514 0.67472,2.07638 1.01212,5.29467 1.0122,9.65488 l -18.29755,0 c -0.052,-4.77547 -1.86875,-8.12353 -5.45034,-10.04419 -2.75117,-1.50526 -6.87785,-2.25792 -12.380045,-2.25799 -5.554192,7e-5 -9.992317,0.90845 -13.314391,2.72517 -3.114507,1.71302 -4.671744,3.84124 -4.671716,6.38467 -2.8e-5,3.37408 2.906815,5.76184 8.720536,7.1633 0.207596,5e-5 6.618222,0.96035 19.231896,2.88089 8.61666,1.29775 15.02729,3.2962 19.2319,5.99537 5.86552,3.73741 8.79832,9.26561 8.7984,16.5846 -8e-5,7.16331 -3.76341,13.28844 -11.28998,18.37541 -7.52672,5.08698 -16.6106,7.63047 -27.251679,7.63047 -9.706823,0 -18.219719,-2.18013 -25.538715,-6.5404 -7.215218,-4.30835 -11.445712,-9.65487 -12.691495,-16.03956 -0.207638,-1.14195 -0.311454,-3.37399 -0.311448,-6.69613 l 18.764727,0 c 0.155698,8.20148 6.566325,12.30221 19.231897,12.30219 5.657913,2e-5 10.433443,-0.90837 14.326593,-2.72517 3.84113,-1.76485 5.76172,-3.89307 5.76179,-6.38468 -7e-5,-3.89306 -2.88096,-6.46251 -8.64268,-7.70833 -0.25959,-0.10378 -6.5664,-0.80454 -18.920448,-2.10227 -8.564841,-0.8824 -14.897606,-2.64727 -18.998312,-5.29461 -5.761796,-3.68542 -8.642684,-9.52506 -8.642675,-17.51894 -9e-6,-7.31895 3.296143,-13.44409 9.888466,-18.37541 6.6961,-5.0869 15.286859,-7.63039 25.7723,-7.63047 z"
         style="font-family:gpkn;-inkscape-font-specification:gpkn"
         id="path2990"
         inkscape:connector-curvature="0" />
      <path
         d="m 193.09505,108.11095 c 10.43344,8e-5 19.62114,3.426 27.56312,10.27777 7.83802,6.7481 12.56164,15.20909 14.17088,25.38299 0.36326,2.23209 0.54494,5.99541 0.54503,11.28998 l 0,36.98442 -17.36321,0 0,-36.82869 c -8e-5,-4.1526 -0.23366,-7.34493 -0.70076,-9.57702 -1.14205,-5.70982 -3.97103,-10.43344 -8.48695,-14.17087 -4.56796,-3.78922 -9.81066,-5.68386 -15.72811,-5.68392 -5.96946,6e-5 -11.23811,1.8947 -15.80597,5.68392 -4.51603,3.73743 -7.34501,8.46105 -8.48695,14.17087 -0.41529,2.23209 -0.62293,4.33436 -0.6229,6.30682 l 0,40.09889 -17.44107,0 0,-40.25462 c -1e-5,-2.69917 0.1038,-4.93121 0.31144,-6.69612 1.3496,-10.48535 5.99536,-19.25779 13.93729,-26.31734 7.9938,-7.11131 17.36317,-10.667 28.10816,-10.66708 z"
         style="font-family:gpkn;-inkscape-font-specification:gpkn"
         id="path2992"
         inkscape:connector-curvature="0" />
      <path
         d="m 267.84251,150.15639 0,0.31145 c -2e-5,6.85188 2.41369,12.69152 7.24116,17.51893 4.8274,4.82746 10.66704,7.24118 17.51894,7.24116 6.79988,2e-5 12.61357,-2.4137 17.44107,-7.24116 4.82737,-4.82741 7.24109,-10.66705 7.24116,-17.51893 l 0,-0.31145 17.5968,0 0,41.96758 -17.36322,0 0,-7.39688 c -7.4229,5.39843 -15.72816,8.09764 -24.91581,8.09764 -11.67933,0 -21.6716,-4.15263 -29.97685,-12.45791 -8.25338,-8.25334 -12.38005,-18.21966 -12.38005,-29.89898 l 0,-0.31145 z"
         style="font-family:gpkn;-inkscape-font-specification:gpkn;fill:#008000"
         id="path2994"
         inkscape:connector-curvature="0"
         sodipodi:nodetypes="cssssccccccssscc" />
      <path
         d="m 436.56932,150.15639 0,0.31145 c -1e-4,11.67932 -4.12678,21.64564 -12.38005,29.89898 -8.25344,8.30528 -18.21976,12.45791 -29.89898,12.45791 -9.23966,0 -17.54493,-2.69921 -24.91582,-8.09764 l 0,49.75378 -17.44108,0 0,-84.32448 17.5968,0 0,0.31145 c -3e-5,6.85188 2.41369,12.69152 7.24116,17.51893 4.8274,4.82746 10.66704,7.24118 17.51894,7.24116 6.79988,2e-5 12.61357,-2.4137 17.44107,-7.24116 4.82737,-4.82741 7.24108,-10.66705 7.24116,-17.51893 l 0,-0.31145 z"
         style="font-family:gpkn;-inkscape-font-specification:gpkn;fill:#008000"
         id="path2996"
         inkscape:connector-curvature="0"
         sodipodi:nodetypes="cscscccccssssccc" />
      <path
         d="m 487.49103,108.11095 c 8.8243,8e-5 16.53262,1.86876 23.12499,5.60606 6.38461,3.58172 10.56319,8.25343 12.53578,14.01514 0.67472,2.07638 1.01212,5.29467 1.0122,9.65488 l -18.29755,0 c -0.052,-4.77547 -1.86875,-8.12353 -5.45034,-10.04419 -2.75118,-1.50526 -6.87785,-2.25792 -12.38005,-2.25799 -5.55419,7e-5 -9.99231,0.90845 -13.31439,2.72517 -3.1145,1.71302 -4.67174,3.84124 -4.67171,6.38467 -3e-5,3.37408 2.90681,5.76184 8.72053,7.1633 0.2076,5e-5 6.61822,0.96035 19.2319,2.88089 8.61666,1.29775 15.02728,3.2962 19.2319,5.99537 5.86552,3.73741 8.79831,9.26561 8.7984,16.5846 -9e-5,7.16331 -3.76341,13.28844 -11.28998,18.37541 -7.52672,5.08698 -16.6106,7.63047 -27.25168,7.63047 -9.70682,0 -18.21972,-2.18013 -25.53872,-6.5404 -7.21521,-4.30835 -11.44571,-9.65487 -12.69149,-16.03956 -0.20764,-1.14195 -0.31145,-3.37399 -0.31145,-6.69613 l 18.76473,0 c 0.1557,8.20148 6.56632,12.30221 19.2319,12.30219 5.65791,2e-5 10.43344,-0.90837 14.32659,-2.72517 3.84113,-1.76485 5.76172,-3.89307 5.76179,-6.38468 -7e-5,-3.89306 -2.88096,-6.46251 -8.64268,-7.70833 -0.25959,-0.10378 -6.56641,-0.80454 -18.92045,-2.10227 -8.56484,-0.8824 -14.89761,-2.64727 -18.99831,-5.29461 -5.7618,-3.68542 -8.64269,-9.52506 -8.64268,-17.51894 -1e-5,-7.31895 3.29615,-13.44409 9.88847,-18.37541 6.6961,-5.0869 15.28686,-7.63039 25.7723,-7.63047 z"
         style="font-family:gpkn;-inkscape-font-specification:gpkn"
         id="path2998"
         inkscape:connector-curvature="0" />
      <path
         d="m 549.547,175.77297 c 2.33584,1e-5 4.3343,0.80459 5.99537,2.41372 1.66103,1.71297 2.49156,3.73738 2.49158,6.07323 -2e-5,2.33586 -0.83055,4.33432 -2.49158,5.99537 -1.66107,1.66105 -3.65953,2.49158 -5.99537,2.49158 -2.38778,0 -4.38623,-0.83053 -5.99537,-2.49158 -1.71297,-1.66105 -2.56945,-3.65951 -2.56944,-5.99537 -10e-6,-2.33585 0.85647,-4.36026 2.56944,-6.07323 1.60914,-1.60913 3.60759,-2.41371 5.99537,-2.41372 z"
         style="font-family:gpkn;-inkscape-font-specification:gpkn"
         id="path3000"
         inkscape:connector-curvature="0" />
      <path
         d="m 553.12862,218.67489 c 6.85185,-0.0519 12.69149,-2.4916 17.51893,-7.31902 4.82743,-4.82745 7.24115,-10.66709 7.24116,-17.51893 l 0,-0.31145 0.0779,0 0,-83.00082 17.44108,0 0,83.62371 c -0.10385,11.57546 -4.28243,21.46392 -12.53577,29.6654 -8.20147,8.20142 -18.11588,12.30214 -29.74326,12.30219 z M 586.68711,70.42577 c 2.59538,1.21e-4 4.82742,0.934464 6.69613,2.803029 1.81675,1.816896 2.72514,4.048936 2.72517,6.696127 -3e-5,2.595507 -0.90842,4.801593 -2.72517,6.618264 -1.86871,1.86879 -4.10075,2.803133 -6.69613,2.80303 -2.59541,1.03e-4 -4.82745,-0.93424 -6.69613,-2.80303 -1.86869,-1.816671 -2.80304,-4.022757 -2.80303,-6.618264 -10e-6,-2.647191 0.93434,-4.879231 2.80303,-6.696127 1.86868,-1.868565 4.10072,-2.802908 6.69613,-2.803029 z"
         style="font-family:gpkn;-inkscape-font-specification:gpkn"
         id="path3002"
         inkscape:connector-curvature="0" />
      <path
         d="m 649.44385,108.11095 c 8.8243,8e-5 16.53262,1.86876 23.12499,5.60606 6.38461,3.58172 10.56319,8.25343 12.53578,14.01514 0.67472,2.07638 1.01212,5.29467 1.0122,9.65488 l -18.29755,0 c -0.052,-4.77547 -1.86875,-8.12353 -5.45034,-10.04419 -2.75118,-1.50526 -6.87785,-2.25792 -12.38005,-2.25799 -5.55419,7e-5 -9.99231,0.90845 -13.31439,2.72517 -3.1145,1.71302 -4.67174,3.84124 -4.67171,6.38467 -3e-5,3.37408 2.90681,5.76184 8.72053,7.1633 0.2076,5e-5 6.61822,0.96035 19.2319,2.88089 8.61666,1.29775 15.02728,3.2962 19.2319,5.99537 5.86552,3.73741 8.79831,9.26561 8.7984,16.5846 -9e-5,7.16331 -3.76341,13.28844 -11.28998,18.37541 -7.52672,5.08698 -16.6106,7.63047 -27.25168,7.63047 -9.70682,0 -18.21972,-2.18013 -25.53872,-6.5404 -7.21521,-4.30835 -11.44571,-9.65487 -12.69149,-16.03956 -0.20764,-1.14195 -0.31145,-3.37399 -0.31145,-6.69613 l 18.76473,0 c 0.1557,8.20148 6.56632,12.30221 19.2319,12.30219 5.65791,2e-5 10.43344,-0.90837 14.32659,-2.72517 3.84113,-1.76485 5.76172,-3.89307 5.76179,-6.38468 -7e-5,-3.89306 -2.88096,-6.46251 -8.64268,-7.70833 -0.25959,-0.10378 -6.56641,-0.80454 -18.92045,-2.10227 -8.56484,-0.8824 -14.89761,-2.64727 -18.99831,-5.29461 -5.7618,-3.68542 -8.64269,-9.52506 -8.64268,-17.51894 -1e-5,-7.31895 3.29615,-13.44409 9.88847,-18.37541 6.6961,-5.0869 15.28686,-7.63039 25.7723,-7.63047 z"
         style="font-family:gpkn;-inkscape-font-specification:gpkn"
         id="path3004"
         inkscape:connector-curvature="0" />
    </g>
    <path
       inkscape:connector-curvature="0"
       id="path3006"
       style="display:inline;font-size:159.46124268000000000px;font-style:normal;font-variant:normal;font-weight:normal;font-stretch:normal;line-height:125%;letter-spacing:0px;word-spacing:0px;fill:#007ae1;fill-opacity:1;stroke:none;font-family:gpkn;-inkscape-font-specification:gpkn"
       d="m 394.29029,108.11095 c 10.43343,8e-5 19.62113,3.40005 27.56312,10.19991 7.83802,6.7481 12.56163,15.18314 14.17087,25.30513 l -17.9861,0 c -1.50541,-5.19074 -4.43821,-9.44719 -8.7984,-12.76936 -4.41224,-3.37395 -9.3954,-5.06096 -14.94949,-5.06102 -5.60611,6e-5 -10.61522,1.68707 -15.02736,5.06102 -4.3603,3.32217 -7.29309,7.57862 -8.7984,12.76936 l -17.9861,0 c 1.66104,-10.12199 6.41061,-18.55703 14.24873,-25.30513 7.88998,-6.79986 17.07768,-10.19983 27.56313,-10.19991 z"
       sodipodi:nodetypes="ccccccccccc" />
    <path
       inkscape:connector-curvature="0"
       id="path3010"
       style="display:inline;font-size:159.46124268000000000px;font-style:normal;font-variant:normal;font-weight:normal;font-stretch:normal;line-height:125%;letter-spacing:0px;word-spacing:0px;fill:#007ae1;fill-opacity:1;stroke:none;font-family:gpkn;-inkscape-font-specification:gpkn"
       d="m 292.60261,108.11095 c 10.43344,8e-5 19.62113,3.40005 27.56312,10.19991 7.83802,6.7481 12.56164,15.18314 14.17087,25.30513 l -17.9861,0 c -1.50541,-5.19074 -4.4382,-9.44719 -8.7984,-12.76936 -4.41224,-3.37395 -9.3954,-5.06096 -14.94949,-5.06102 -5.60611,6e-5 -10.61522,1.68707 -15.02736,5.06102 -4.3603,3.32217 -7.29309,7.57862 -8.7984,12.76936 l -17.9861,0 c 1.66104,-10.12199 6.41062,-18.55703 14.24873,-25.30513 7.88998,-6.79986 17.07768,-10.19983 27.56313,-10.19991 z"
       sodipodi:nodetypes="ccccccccccc" />
  </g>
</svg>
